<svg width="40" height="40" viewBox="0 0 40 40" fill="none" xmlns="http://www.w3.org/2000/svg">
    <path d="M11.0478 17.6305C9.62236 17.6305 8.93941 17.1616 8.93941 15.9352C8.93941 14.7089 9.62236 14.276 11.0478 14.276H24.8272L23.216 8.00754L11.523 8C5.49454 8 3 10.9577 3 15.5024C3 19.6504 5.34606 22.4277 10.4539 22.4277H21.2636C22.7188 22.4277 23.3721 22.9327 23.3721 24.159C23.3721 25.4214 22.7188 25.9264 21.2636 25.9264C21.2636 25.9264 10.6151 25.8248 8.15826 25.8014C7.84149 25.7984 7.5404 25.9399 7.34071 26.1859L3.11602 31.3885C3.02419 31.5016 3.00532 31.6572 3.06747 31.789C3.12961 31.9207 3.26178 32.0052 3.40744 32.0062C6.89808 32.0312 20.7884 32.1302 20.7884 32.1302C26.8466 32.1302 29.3115 29.1726 29.3115 24.2311C29.3115 19.8307 26.6982 17.6305 21.8575 17.6305H11.0478Z"
          fill="url(#paint0_linear_2_10)"/>
    <path d="M26.7374 25.9317C29.8954 25.9317 32.215 23.5871 32.215 20.1607C32.215 16.698 29.8675 14.2814 26.7374 14.2814H17.3472L13.6304 8.00531H26.7374C33.2211 8.00531 38 12.7664 38 19.836C38 26.8334 33.2211 32.1356 26.7374 32.1356H17.3472L13.6304 25.9317H26.7374Z"
          fill="url(#paint1_linear_2_10)"/>
    <defs>
        <linearGradient id="paint0_linear_2_10" x1="3" y1="8" x2="29.3115" y2="8" gradientUnits="userSpaceOnUse">
            <stop stop-color="#AD5389"/>
            <stop offset="1" stop-color="#3C1053"/>
        </linearGradient>
        <linearGradient id="paint1_linear_2_10" x1="38" y1="8.00531" x2="13.6304" y2="8.00531"
                        gradientUnits="userSpaceOnUse">
            <stop stop-color="#F953C6"/>
            <stop offset="1" stop-color="#B91D73"/>
        </linearGradient>
    </defs>
</svg>
